<svg width="42" height="34" viewBox="0 0 42 34" fill="none" xmlns="http://www.w3.org/2000/svg"><path fill-rule="evenodd" clip-rule="evenodd" d="M14.0867 0.656406C11.241 -0.566948 7.97179 1.5041 7.97179 4.66171V13.4091C7.97179 19.8104 12.3546 25.1645 18.2181 26.5027C19.2287 26.8828 19.5393 27.3939 19.5793 27.8013V27.8899L19.579 27.8896L19.5793 27.8958V27.9759C19.5687 28.2279 19.4591 28.5701 19.1536 28.8471H15.9409C15.1526 28.8471 14.5136 29.4862 14.5136 30.2745C14.5136 30.435 14.5401 30.5894 14.5889 30.7334H13.0182C12.2272 30.7334 11.5859 31.3747 11.5859 32.1657C11.5859 32.9568 12.2272 33.5981 13.0182 33.5981H28.7601C29.5512 33.5981 30.1925 32.9568 30.1925 32.1657C30.1925 31.3747 29.5512 30.7334 28.7601 30.7334H27.4615C27.5103 30.5894 27.5368 30.435 27.5368 30.2745C27.5368 29.4862 26.8978 28.8471 26.1095 28.8471H22.8507C22.5685 28.6242 22.4241 28.35 22.3681 28.1133V27.831C22.4457 27.3727 22.8765 26.805 24.2268 26.4375C29.9533 24.998 34.2011 19.711 34.2011 13.4091V4.66171C34.2011 1.5041 30.9319 -0.566947 28.0862 0.656407C25.4325 1.79718 22.5919 2.84163 21.0864 2.84163C19.581 2.84163 16.7403 1.79718 14.0867 0.656406ZM4.35009 16.3748C2.6223 15.4664 1.68222 13.4485 2.20034 11.4888C2.30684 11.0859 2.71874 10.8494 3.12034 10.9605L3.25989 10.9991C4.46034 11.3312 5.40222 12.1499 5.93 13.1842C6.27824 13.3866 6.50967 13.7664 6.50263 14.1978C6.48629 15.1998 6.65091 16.9075 7.20872 18.6485C7.76885 20.3967 8.68562 22.0566 10.0855 23.122C10.5909 23.5067 10.6887 24.2282 10.3041 24.7336C10.2195 24.8447 10.1187 24.9361 10.0075 25.007C9.05615 26.8441 6.86647 27.7005 4.88711 26.9279C4.50596 26.7791 4.31291 26.3477 4.45591 25.9644L4.57108 25.6556C5.00725 24.4864 5.91081 23.6374 6.98825 23.2401C6.67974 22.8379 6.40435 22.4165 6.15877 21.9847C4.26086 22.3411 2.32119 21.3362 1.55668 19.4686C1.39911 19.0837 1.58132 18.6389 1.96365 18.4751L2.11386 18.4107C2.9626 18.0472 3.85995 17.9849 4.68935 18.1762C4.53785 17.5503 4.42727 16.9424 4.35009 16.3748ZM35.6154 13.2459C35.3208 13.4585 35.1315 13.807 35.1379 14.1978C35.1542 15.1998 34.9896 16.9075 34.4318 18.6485C33.8717 20.3967 32.9549 22.0566 31.555 23.122C31.0496 23.5067 30.9518 24.2282 31.3364 24.7336C31.4351 24.8633 31.556 24.9661 31.6897 25.0409C32.6503 26.8546 34.8252 27.6957 36.7924 26.9279C37.1735 26.7791 37.3666 26.3477 37.2236 25.9644L37.1084 25.6556C36.6681 24.4754 35.7516 23.6215 34.6608 23.229C34.9786 22.8135 35.2612 22.3774 35.5122 21.9309C37.4859 22.4263 39.5623 21.4169 40.3598 19.4686C40.5174 19.0837 40.3352 18.6389 39.9528 18.4751L39.8026 18.4108C38.852 18.0036 37.8405 17.9743 36.9317 18.256C37.0997 17.5757 37.2193 16.9153 37.3 16.3036C39.0398 15.3374 39.9272 13.2427 39.3135 11.2768C39.1894 10.8793 38.7679 10.6618 38.372 10.7912L38.2291 10.8379C37.0073 11.2369 36.0835 12.1415 35.6154 13.2459Z" fill="white"/></svg>